<?xml version="1.0" encoding="UTF-8"?>
<svg xmlns="http://www.w3.org/2000/svg" xmlns:xlink="http://www.w3.org/1999/xlink" width="854" height="480" viewBox="0 0 854 480">
<defs>
<g>
<g id="glyph-0-0">
<path d="M 0.613281 -1.296875 C 1.148438 -0.910156 1.726562 -0.714844 2.34375 -0.714844 C 3.171875 -0.714844 3.585938 -0.988281 3.585938 -1.53125 C 3.585938 -1.761719 3.496094 -1.953125 3.316406 -2.101562 C 3.132812 -2.253906 2.765625 -2.429688 2.214844 -2.636719 C 1.546875 -2.902344 1.117188 -3.167969 0.917969 -3.429688 C 0.71875 -3.695312 0.617188 -4.011719 0.617188 -4.382812 C 0.617188 -4.914062 0.84375 -5.339844 1.292969 -5.660156 C 1.746094 -5.980469 2.296875 -6.140625 2.957031 -6.140625 C 3.464844 -6.140625 3.941406 -6.050781 4.378906 -5.875 L 4.378906 -4.851562 C 3.929688 -5.140625 3.421875 -5.285156 2.855469 -5.285156 C 2.511719 -5.285156 2.238281 -5.210938 2.023438 -5.0625 C 1.808594 -4.914062 1.703125 -4.71875 1.703125 -4.476562 C 1.703125 -4.238281 1.78125 -4.050781 1.933594 -3.917969 C 2.085938 -3.78125 2.429688 -3.613281 2.957031 -3.402344 C 3.625 -3.152344 4.078125 -2.894531 4.3125 -2.625 C 4.546875 -2.359375 4.664062 -2.027344 4.664062 -1.632812 C 4.664062 -1.082031 4.441406 -0.648438 3.988281 -0.332031 C 3.539062 -0.015625 2.957031 0.140625 2.242188 0.140625 C 1.617188 0.140625 1.074219 0.0234375 0.613281 -0.210938 Z "/>
</g>
<g id="glyph-0-1">
<path d="M 5.835938 -2.730469 L 1.636719 -2.730469 C 1.65625 -2.089844 1.832031 -1.59375 2.164062 -1.246094 C 2.496094 -0.894531 2.960938 -0.722656 3.558594 -0.722656 C 4.230469 -0.722656 4.847656 -0.9375 5.410156 -1.367188 L 5.410156 -0.417969 C 4.878906 -0.046875 4.179688 0.140625 3.308594 0.140625 C 2.441406 0.140625 1.765625 -0.132812 1.277344 -0.683594 C 0.792969 -1.234375 0.546875 -1.996094 0.546875 -2.972656 C 0.546875 -3.890625 0.816406 -4.648438 1.347656 -5.246094 C 1.882812 -5.84375 2.542969 -6.140625 3.335938 -6.140625 C 4.121094 -6.140625 4.734375 -5.890625 5.175781 -5.382812 C 5.617188 -4.878906 5.835938 -4.171875 5.835938 -3.265625 L 5.835938 -2.730469 M 4.773438 -3.582031 C 4.769531 -4.125 4.640625 -4.542969 4.390625 -4.839844 C 4.136719 -5.136719 3.78125 -5.285156 3.320312 -5.285156 C 2.898438 -5.285156 2.53125 -5.125 2.222656 -4.8125 C 1.914062 -4.496094 1.71875 -4.085938 1.636719 -3.582031 Z "/>
</g>
<g id="glyph-0-2">
<path d="M 6.15625 -0.503906 C 6.15625 1.714844 5.078125 2.828125 2.925781 2.828125 C 2.179688 2.828125 1.53125 2.6875 0.980469 2.410156 L 0.980469 1.382812 C 1.652344 1.757812 2.292969 1.941406 2.90625 1.941406 C 4.367188 1.941406 5.09375 1.175781 5.09375 -0.359375 L 5.09375 -0.992188 L 5.074219 -0.992188 C 4.617188 -0.238281 3.9375 0.140625 3.03125 0.140625 C 2.28125 0.140625 1.679688 -0.128906 1.226562 -0.667969 C 0.773438 -1.207031 0.546875 -1.921875 0.546875 -2.808594 C 0.546875 -3.832031 0.796875 -4.644531 1.296875 -5.242188 C 1.796875 -5.84375 2.460938 -6.140625 3.292969 -6.140625 C 4.09375 -6.140625 4.683594 -5.824219 5.074219 -5.1875 L 5.09375 -5.1875 L 5.09375 -6 L 6.15625 -6 L 6.15625 -0.503906 M 5.09375 -3.570312 C 5.097656 -4.03125 4.941406 -4.429688 4.628906 -4.761719 C 4.3125 -5.097656 3.925781 -5.261719 3.464844 -5.261719 C 2.886719 -5.261719 2.4375 -5.050781 2.117188 -4.625 C 1.792969 -4.199219 1.632812 -3.617188 1.632812 -2.875 C 1.632812 -2.238281 1.789062 -1.722656 2.097656 -1.328125 C 2.410156 -0.933594 2.824219 -0.738281 3.335938 -0.738281 C 3.855469 -0.738281 4.277344 -0.925781 4.605469 -1.300781 C 4.933594 -1.679688 5.097656 -2.15625 5.09375 -2.734375 Z "/>
</g>
<g id="glyph-0-3">
<path d="M 4.042969 -2.917969 L 0.847656 -2.917969 L 0.847656 -3.738281 L 4.042969 -3.738281 Z "/>
</g>
<g id="glyph-0-4">
<path d="M 0.492188 -4.035156 C 0.492188 -5.519531 0.738281 -6.640625 1.230469 -7.402344 C 1.722656 -8.164062 2.4375 -8.542969 3.367188 -8.542969 C 5.148438 -8.542969 6.039062 -7.109375 6.039062 -4.238281 C 6.039062 -2.820312 5.789062 -1.734375 5.285156 -0.984375 C 4.785156 -0.234375 4.082031 0.140625 3.179688 0.140625 C 2.324219 0.140625 1.664062 -0.214844 1.195312 -0.925781 C 0.726562 -1.640625 0.492188 -2.675781 0.492188 -4.035156 M 1.578125 -4.085938 C 1.578125 -1.855469 2.144531 -0.738281 3.277344 -0.738281 C 4.390625 -0.738281 4.949219 -1.871094 4.949219 -4.140625 C 4.949219 -6.488281 4.402344 -7.660156 3.308594 -7.660156 C 2.15625 -7.660156 1.578125 -6.46875 1.578125 -4.085938 Z "/>
</g>
<g id="glyph-0-5">
<path d="M 0.777344 -1.40625 C 1.351562 -0.960938 2 -0.738281 2.722656 -0.738281 C 3.300781 -0.738281 3.761719 -0.878906 4.097656 -1.164062 C 4.4375 -1.449219 4.605469 -1.828125 4.605469 -2.304688 C 4.605469 -3.367188 3.84375 -3.902344 2.320312 -3.902344 L 1.621094 -3.902344 L 1.621094 -4.78125 L 2.289062 -4.78125 C 3.636719 -4.78125 4.3125 -5.277344 4.3125 -6.277344 C 4.3125 -7.199219 3.796875 -7.660156 2.765625 -7.660156 C 2.175781 -7.660156 1.621094 -7.460938 1.101562 -7.0625 L 1.101562 -8.066406 C 1.652344 -8.386719 2.292969 -8.542969 3.027344 -8.542969 C 3.742188 -8.542969 4.320312 -8.355469 4.753906 -7.984375 C 5.1875 -7.609375 5.402344 -7.125 5.402344 -6.527344 C 5.402344 -5.425781 4.84375 -4.71875 3.722656 -4.40625 L 3.722656 -4.382812 C 4.328125 -4.320312 4.808594 -4.105469 5.160156 -3.742188 C 5.515625 -3.378906 5.691406 -2.925781 5.691406 -2.382812 C 5.691406 -1.625 5.417969 -1.015625 4.875 -0.554688 C 4.332031 -0.0898438 3.605469 0.140625 2.703125 0.140625 C 1.90625 0.140625 1.265625 -0.0078125 0.777344 -0.304688 Z "/>
</g>
</g>
</defs>
<g fill="rgb(90.980392%, 78.823529%, 47.843137%)" fill-opacity="1">
<use xlink:href="#glyph-0-0" x="30" y="31.755859"/>
<use xlink:href="#glyph-0-1" x="35" y="31.755859"/>
<use xlink:href="#glyph-0-2" x="41" y="31.755859"/>
<use xlink:href="#glyph-0-3" x="48" y="31.755859"/>
<use xlink:href="#glyph-0-4" x="53" y="31.755859"/>
<use xlink:href="#glyph-0-5" x="60" y="31.755859"/>
</g>
</svg>
